<?xml version="1.0" encoding="UTF-8"?>
<svg id="Layer_2" data-name="Layer 2" xmlns="http://www.w3.org/2000/svg" viewBox="0 0 1739.93 521.98">
  <defs>
    <style>
      .cls-1 {
        fill: none;
      }

      .cls-2 {
        fill: #ff0057;
      }
    </style>
  </defs>
  <polygon class="cls-1" points="1118.74 328.53 1108.36 318.15 1426.5 0 1398.41 0 1102.89 295.52 1102.92 295.55 1092.54 305.93 786.6 0 756.99 0 923.79 166.8 913.61 176.99 736.62 0 703.51 0 897.06 193.55 886.88 203.74 683.14 0 650.11 0 870.36 220.25 860.49 230.12 630.37 0 598.32 0 844.46 246.14 834.1 256.5 577.6 0 544.63 0 817.61 272.98 807.36 283.23 524.13 0 492.13 0 791.37 299.24 780.98 309.62 471.36 0 443.21 0 756.44 313.23 756.48 313.18 766.87 323.57 568.45 521.98 596.45 521.98 928.02 190.41 927.98 190.36 938.36 179.98 1280.36 521.98 1312.27 521.98 1118.78 328.49 1118.74 328.53"/>
  <polygon class="cls-1" points="211.1 0 178.01 0 491.42 313.42 491.65 313.19 501.83 323.38 501.61 323.6 501.79 323.78 491.6 333.97 491.42 333.79 303.23 521.98 336.3 521.98 534.69 323.59 211.1 0"/>
  <polygon class="cls-1" points="264.5 0 231.47 0 544.87 313.4 545.11 313.17 555.3 323.36 555.06 323.59 555.26 323.79 545.08 333.98 544.87 333.78 356.67 521.98 389.74 521.98 588.11 323.61 264.5 0"/>
  <polygon class="cls-1" points="1276.7 328.53 1266.84 318.67 1267.4 318.1 1266.88 317.59 1276.75 307.72 1277.26 308.24 1585.5 0 1553.47 0 1235.36 318.1 1439.24 521.98 1471.27 521.98 1277.26 327.97 1276.7 328.53"/>
  <polygon class="cls-1" points="1171.24 328.52 1160.99 318.27 1161.15 318.11 1161.02 317.98 1171.27 307.74 1171.4 307.87 1479.26 0 1447.27 0 1129.17 318.1 1333.04 521.98 1365.01 521.98 1171.4 328.36 1171.24 328.52"/>
  <polygon class="cls-1" points="316.28 0 284.23 0 597.98 313.74 598.53 313.19 608.4 323.06 607.84 323.61 608.36 324.12 598.49 333.99 597.98 333.48 409.48 521.98 441.5 521.98 639.88 323.6 316.28 0"/>
  <polygon class="cls-1" points="1224.93 328.54 1214.57 318.18 1214.64 318.1 1214.62 318.08 1224.98 307.72 1225 307.75 1532.75 0 1499.76 0 1181.64 318.11 1385.51 521.98 1418.52 521.98 1225 328.46 1224.93 328.54"/>
  <polygon class="cls-1" points="1112.8 0 1072.2 0 1092.5 20.3 1112.8 0"/>
  <polygon class="cls-1" points="775.19 521.98 808.21 521.98 928.22 401.97 927.98 401.74 938.17 391.55 938.41 391.79 938.6 391.59 948.79 401.78 948.59 401.97 1068.6 521.98 1101.63 521.98 938.41 358.76 775.19 521.98"/>
  <polygon class="cls-1" points="723.41 521.98 755.45 521.98 928.54 348.89 927.98 348.33 937.85 338.46 938.41 339.02 938.93 338.51 948.79 348.37 948.28 348.89 1121.36 521.98 1153.43 521.98 938.42 306.97 723.41 521.98"/>
  <polygon class="cls-1" points="828.59 521.98 861.68 521.98 928.22 455.44 927.98 455.2 938.16 445.01 938.4 445.25 938.61 445.05 948.79 455.24 948.59 455.44 1015.13 521.98 1048.22 521.98 938.41 412.16 828.59 521.98"/>
  <polygon class="cls-1" points="882.05 521.98 901.85 521.98 901.6 521.73 911.84 511.48 922.35 521.98 954.36 521.98 927.85 495.47 938.24 485.09 975.13 521.98 994.75 521.98 938.4 465.63 882.05 521.98"/>
  <polygon class="cls-1" points="422.44 0 390.45 0 703.81 313.35 703.98 313.18 714.23 323.43 714.05 323.6 714.19 323.73 703.94 333.98 703.81 333.85 515.68 521.98 547.68 521.98 746.05 323.61 422.44 0"/>
  <polygon class="cls-1" points="1219.7 0 1186.65 0 1102.69 83.96 1102.91 84.18 1092.73 94.37 1092.51 94.15 1092.32 94.33 1082.13 84.14 1082.32 83.96 998.36 0 965.32 0 1092.51 127.19 1219.7 0"/>
  <polygon class="cls-1" points="1166.28 0 1133.17 0 1102.69 30.49 1102.93 30.73 1092.74 40.92 1092.5 40.67 1092.3 40.87 1082.12 30.68 1082.31 30.49 1051.83 0 1018.73 0 1092.51 73.77 1166.28 0"/>
  <polygon class="cls-1" points="369.95 0 337 0 650.24 313.24 650.3 313.18 660.66 323.54 660.6 323.6 660.63 323.63 650.27 333.99 650.24 333.96 462.22 521.98 495.18 521.98 693.56 323.6 369.95 0"/>
  <polygon class="cls-1" points="617.22 521.98 649.21 521.98 928.15 243.04 927.98 242.87 938.22 232.62 938.4 232.79 938.54 232.65 948.78 242.9 948.64 243.04 1227.58 521.98 1259.59 521.98 938.41 200.79 617.22 521.98"/>
  <polygon class="cls-1" points="669.71 521.98 702.69 521.98 928.06 296.61 927.99 296.54 938.35 286.18 938.42 286.25 938.43 286.24 948.79 296.6 948.78 296.61 1174.15 521.98 1207.08 521.98 938.4 253.29 669.71 521.98"/>
  <polygon class="cls-1" points="1271.47 0 1239.43 0 1102.38 137.06 1102.93 137.61 1093.06 147.48 1092.51 146.92 1092 147.44 1082.13 137.57 1082.64 137.06 945.58 0 913.54 0 1092.51 178.97 1271.47 0"/>
  <polygon class="cls-1" points="0 6.11 0 38.15 122.7 160.85 123.25 160.29 133.12 170.16 132.56 170.72 133.07 171.22 123.2 181.09 122.7 180.58 0 303.28 0 335.31 164.6 170.71 0 6.11"/>
  <polygon class="cls-1" points="0 57.89 0 90.91 69.61 160.52 69.84 160.28 80.03 170.47 79.79 170.71 79.98 170.89 69.79 181.08 69.61 180.89 0 250.5 0 283.54 112.83 170.72 0 57.89"/>
  <polygon class="cls-1" points="1377.64 0 1345.65 0 1102.75 242.9 1102.91 243.07 1092.67 253.31 1092.5 253.15 1092.38 253.28 1082.13 243.03 1082.25 242.9 839.35 0 807.37 0 1092.5 285.13 1377.64 0"/>
  <polygon class="cls-1" points="0 111.29 0 144.4 16.12 160.52 16.36 160.28 26.55 170.47 26.31 170.71 26.51 170.91 16.33 181.1 16.12 180.89 0 197.02 0 230.12 59.42 170.71 0 111.29"/>
  <polygon class="cls-1" points="1325.15 0 1292.19 0 1102.87 189.33 1102.93 189.39 1092.57 199.75 1092.51 199.68 1092.49 199.71 1082.13 189.35 1082.15 189.33 892.82 0 859.85 0 1092.5 232.65 1325.15 0"/>
  <polygon class="cls-1" points="47.59 0 14.61 0 174.96 160.35 175.02 160.29 185.38 170.65 185.32 170.71 185.34 170.73 174.98 181.09 174.96 181.07 0 356.03 0 389.02 218.31 170.72 47.59 0"/>
  <polygon class="cls-1" points="157.63 0 120.85 0 281.18 160.33 281.21 160.3 291.6 170.68 0 462.28 0 490.9 308.46 182.44 318.65 192.62 0 511.27 0 521.98 22.38 521.98 335.2 209.16 345.38 219.35 42.75 521.98 75.8 521.98 361.9 235.88 371.77 245.74 95.54 521.98 127.58 521.98 387.79 261.77 398.15 272.13 148.3 521.98 181.27 521.98 414.65 288.6 424.9 298.85 201.77 521.98 233.76 521.98 440.88 314.86 451.26 325.24 254.53 521.98 282.86 521.98 481.24 323.6 157.63 0"/>
  <polygon class="cls-1" points="0 164.77 0 176.64 5.94 170.71 0 164.77"/>
  <polygon class="cls-1" points="1330.1 328.54 1319.91 318.35 1320.15 318.11 1319.96 317.92 1330.15 307.74 1330.34 307.93 1638.26 0 1605.24 0 1287.13 318.1 1491 521.98 1524.02 521.98 1330.34 328.3 1330.1 328.54"/>
  <polygon class="cls-1" points="1383.58 328.53 1373.4 318.34 1373.63 318.1 1373.44 317.9 1383.62 307.72 1383.82 307.91 1691.74 0 1658.64 0 1340.52 318.11 1544.39 521.98 1577.51 521.98 1383.82 328.29 1383.58 328.53"/>
  <polygon class="cls-1" points="100.08 0 68.09 0 228.56 160.47 228.73 160.3 238.98 170.54 238.81 170.72 238.93 170.83 228.68 181.08 228.56 180.96 0 409.52 0 441.51 270.79 170.72 100.08 0"/>
  <polygon class="cls-1" points="1394.01 318.1 1597.89 521.98 1625.08 521.98 1421.14 318.04 1431.52 307.66 1645.84 521.98 1677.85 521.98 1447.52 291.65 1457.77 281.4 1698.35 521.98 1731.32 521.98 1474.25 264.91 1484.61 254.55 1739.93 509.87 1739.93 477.83 1500.63 238.53 1510.49 228.66 1739.93 458.1 1739.93 425.05 1527.02 212.14 1537.21 201.96 1739.93 404.68 1739.93 371.59 1553.75 185.41 1563.94 175.22 1739.93 351.22 1739.93 288.91 1721.48 307.36 1711.29 297.17 1739.93 268.53 1739.93 235.42 1694.72 280.63 1684.54 270.44 1739.93 215.05 1739.93 182.02 1668.03 253.92 1658.16 244.05 1739.93 162.29 1739.93 130.25 1642.14 228.03 1631.78 217.67 1739.93 109.53 1739.93 76.54 1615.3 201.17 1605.05 190.92 1739.93 56.04 1739.93 24.06 1589.05 174.94 1578.66 164.56 1739.93 3.29 1739.93 0 1712.11 0 1394.01 318.1"/>
  <rect class="cls-2" x="1371.43" y="312.77" width="14.41" height=".28" transform="translate(182.54 1066.5) rotate(-45)"/>
  <polygon class="cls-2" points="1383.82 328.29 1577.51 521.98 1597.89 521.98 1394.01 318.1 1383.82 328.29"/>
  <polygon class="cls-2" points="1330.34 328.3 1524.02 521.98 1544.39 521.98 1340.52 318.11 1330.34 328.3"/>
  <rect class="cls-2" x="1317.95" y="312.79" width="14.41" height=".27" transform="translate(166.86 1028.68) rotate(-45)"/>
  <polygon class="cls-2" points="1277.26 327.97 1471.27 521.98 1491 521.98 1287.13 318.1 1277.26 327.97"/>
  <rect class="cls-2" x="1265.1" y="312.55" width="13.95" height=".73" transform="translate(151.32 991.14) rotate(-45)"/>
  <polygon class="cls-2" points="1225 328.46 1418.52 521.98 1439.24 521.98 1235.36 318.1 1225 328.46"/>
  <polygon class="cls-2" points="1224.98 307.72 1214.62 318.08 1214.64 318.1 1225 307.75 1224.98 307.72"/>
  <polygon class="cls-2" points="1171.4 328.36 1365.01 521.98 1385.51 521.98 1181.64 318.11 1171.4 328.36"/>
  <rect class="cls-2" x="1158.96" y="312.83" width="14.49" height=".18" transform="translate(120.31 916.29) rotate(-45)"/>
  <polygon class="cls-2" points="1118.78 328.49 1312.27 521.98 1333.04 521.98 1129.17 318.1 1118.78 328.49"/>
  <polygon class="cls-2" points="1373.63 318.1 1373.4 318.34 1383.58 328.53 1383.82 328.29 1394.01 318.1 1712.11 0 1691.74 0 1383.82 307.91 1373.63 318.1"/>
  <polygon class="cls-2" points="1320.15 318.11 1319.91 318.35 1330.1 328.54 1330.34 328.3 1340.52 318.11 1658.64 0 1638.26 0 1330.34 307.93 1320.15 318.11"/>
  <polygon class="cls-2" points="1267.4 318.1 1266.84 318.67 1276.7 328.53 1277.26 327.97 1287.13 318.1 1605.24 0 1585.5 0 1277.26 308.24 1267.4 318.1"/>
  <polygon class="cls-2" points="1214.64 318.1 1214.57 318.18 1224.93 328.54 1225 328.46 1235.36 318.1 1553.47 0 1532.75 0 1225 307.75 1214.64 318.1"/>
  <polygon class="cls-2" points="1161.15 318.11 1160.99 318.27 1171.24 328.52 1171.4 328.36 1181.64 318.11 1499.76 0 1479.26 0 1171.4 307.87 1161.15 318.11"/>
  <polygon class="cls-2" points="1118.74 328.53 1118.78 328.49 1129.17 318.1 1447.27 0 1426.5 0 1108.36 318.15 1118.74 328.53"/>
  <rect class="cls-2" x="943.45" y="443.04" width=".29" height="14.41" transform="translate(-42 799.1) rotate(-45)"/>
  <polygon class="cls-2" points="928.22 455.44 861.68 521.98 882.05 521.98 938.4 465.63 928.22 455.44"/>
  <rect class="cls-2" x="943.46" y="389.58" width=".28" height="14.41" transform="translate(-4.19 783.44) rotate(-45)"/>
  <polygon class="cls-2" points="928.22 401.97 808.21 521.98 828.59 521.98 938.41 412.16 928.22 401.97"/>
  <polygon class="cls-2" points="928.54 348.89 755.45 521.98 775.19 521.98 938.41 358.76 928.54 348.89"/>
  <rect class="cls-2" x="943.23" y="336.72" width=".73" height="13.95" transform="translate(33.35 767.9) rotate(-45)"/>
  <rect class="cls-2" x="943.6" y="284.1" width=".02" height="14.65" transform="translate(70.3 752.58) rotate(-45)"/>
  <polygon class="cls-2" points="928.06 296.61 702.69 521.98 723.41 521.98 938.42 306.97 928.06 296.61"/>
  <polygon class="cls-2" points="928.15 243.04 649.21 521.98 669.71 521.98 938.4 253.29 928.15 243.04"/>
  <rect class="cls-2" x="943.49" y="230.6" width=".2" height="14.49" transform="translate(108.19 736.88) rotate(-45)"/>
  <polygon class="cls-2" points="928.02 190.41 596.45 521.98 617.22 521.98 938.41 200.79 928.02 190.41"/>
  <polygon class="cls-2" points="938.4 445.25 938.16 445.01 927.98 455.2 928.22 455.44 938.4 465.63 994.75 521.98 1015.13 521.98 948.59 455.44 938.4 445.25"/>
  <polygon class="cls-2" points="938.41 391.79 938.17 391.55 927.98 401.74 928.22 401.97 938.41 412.16 1048.22 521.98 1068.6 521.98 948.59 401.97 938.41 391.79"/>
  <polygon class="cls-2" points="938.41 339.02 937.85 338.46 927.98 348.33 928.54 348.89 938.41 358.76 1101.63 521.98 1121.36 521.98 948.28 348.89 938.41 339.02"/>
  <polygon class="cls-2" points="938.42 286.25 938.35 286.18 927.99 296.54 928.06 296.61 938.42 306.97 1153.43 521.98 1174.15 521.98 948.78 296.61 938.42 286.25"/>
  <polygon class="cls-2" points="938.4 232.79 938.22 232.62 927.98 242.87 928.15 243.04 938.4 253.29 1207.08 521.98 1227.58 521.98 948.64 243.04 938.4 232.79"/>
  <polygon class="cls-2" points="927.98 190.36 928.02 190.41 938.41 200.79 1259.59 521.98 1280.36 521.98 938.36 179.98 927.98 190.36"/>
  <polygon class="cls-2" points="1553.75 185.41 1739.93 371.59 1739.93 351.22 1563.94 175.22 1553.75 185.41"/>
  <polygon class="cls-2" points="1527.02 212.14 1739.93 425.05 1739.93 404.68 1537.21 201.96 1527.02 212.14"/>
  <polygon class="cls-2" points="1500.63 238.53 1739.93 477.83 1739.93 458.1 1510.49 228.66 1500.63 238.53"/>
  <polygon class="cls-2" points="1474.25 264.91 1731.32 521.98 1739.93 521.98 1739.93 509.87 1484.61 254.55 1474.25 264.91"/>
  <polygon class="cls-2" points="1447.52 291.65 1677.85 521.98 1698.35 521.98 1457.77 281.4 1447.52 291.65"/>
  <polygon class="cls-2" points="1421.14 318.04 1625.08 521.98 1645.84 521.98 1431.52 307.66 1421.14 318.04"/>
  <polygon class="cls-2" points="1721.48 307.36 1739.93 288.91 1739.93 268.53 1711.29 297.17 1721.48 307.36"/>
  <polygon class="cls-2" points="1694.72 280.63 1739.93 235.42 1739.93 215.05 1684.54 270.44 1694.72 280.63"/>
  <polygon class="cls-2" points="1668.03 253.92 1739.93 182.02 1739.93 162.29 1658.16 244.05 1668.03 253.92"/>
  <polygon class="cls-2" points="1642.14 228.03 1739.93 130.25 1739.93 109.53 1631.78 217.67 1642.14 228.03"/>
  <polygon class="cls-2" points="1615.3 201.17 1739.93 76.54 1739.93 56.04 1605.05 190.92 1615.3 201.17"/>
  <polygon class="cls-2" points="1589.05 174.94 1739.93 24.06 1739.93 3.29 1578.66 164.56 1589.05 174.94"/>
  <rect class="cls-2" x="1087.17" y="28.48" width=".28" height="14.41" transform="translate(293.24 779.29) rotate(-45)"/>
  <polygon class="cls-2" points="1102.69 30.49 1133.17 0 1112.8 0 1092.5 20.3 1102.69 30.49"/>
  <polygon class="cls-2" points="1102.69 83.96 1186.65 0 1166.28 0 1092.51 73.77 1102.69 83.96"/>
  <rect class="cls-2" x="1087.19" y="81.94" width=".26" height="14.41" transform="translate(255.43 794.96) rotate(-45)"/>
  <rect class="cls-2" x="1086.96" y="135.27" width=".72" height="13.95" transform="translate(217.88 810.51) rotate(-45)"/>
  <polygon class="cls-2" points="1102.38 137.06 1239.43 0 1219.7 0 1092.51 127.19 1102.38 137.06"/>
  <rect class="cls-2" x="1087.3" y="187.19" width=".03" height="14.65" transform="translate(180.92 825.82) rotate(-45)"/>
  <polygon class="cls-2" points="1102.87 189.33 1292.19 0 1271.47 0 1092.51 178.97 1102.87 189.33"/>
  <rect class="cls-2" x="1087.23" y="240.84" width=".18" height="14.49" transform="translate(143.04 841.52) rotate(-45)"/>
  <polygon class="cls-2" points="1102.75 242.9 1345.65 0 1325.15 0 1092.5 232.65 1102.75 242.9"/>
  <polygon class="cls-2" points="1102.89 295.52 1398.41 0 1377.64 0 1092.5 285.13 1102.89 295.52"/>
  <polygon class="cls-2" points="1092.5 40.67 1092.74 40.92 1102.93 30.73 1102.69 30.49 1092.5 20.3 1072.2 0 1051.83 0 1082.31 30.49 1092.5 40.67"/>
  <polygon class="cls-2" points="1092.51 94.15 1092.73 94.37 1102.91 84.18 1102.69 83.96 1092.51 73.77 1018.73 0 998.36 0 1082.32 83.96 1092.51 94.15"/>
  <polygon class="cls-2" points="1092.51 146.92 1093.06 147.48 1102.93 137.61 1102.38 137.06 1092.51 127.19 965.32 0 945.58 0 1082.64 137.06 1092.51 146.92"/>
  <polygon class="cls-2" points="1092.51 199.68 1092.57 199.75 1102.93 189.39 1102.87 189.33 1092.51 178.97 913.54 0 892.82 0 1082.15 189.33 1092.51 199.68"/>
  <polygon class="cls-2" points="1092.5 253.15 1092.67 253.31 1102.91 243.07 1102.75 242.9 1092.5 232.65 859.85 0 839.35 0 1082.25 242.9 1092.5 253.15"/>
  <polygon class="cls-2" points="1102.92 295.55 1102.89 295.52 1092.5 285.13 807.37 0 786.6 0 1092.54 305.93 1102.92 295.55"/>
  <rect class="cls-2" x="489.4" y="328.66" width="14.41" height=".25" transform="translate(-87.03 447.45) rotate(-45)"/>
  <polygon class="cls-2" points="491.42 313.42 178.01 0 157.63 0 481.24 323.6 491.42 313.42"/>
  <polygon class="cls-2" points="544.87 313.4 231.47 0 211.1 0 534.69 323.59 544.87 313.4"/>
  <rect class="cls-2" x="542.87" y="328.64" width="14.41" height=".29" transform="translate(-71.38 485.25) rotate(-45)"/>
  <polygon class="cls-2" points="597.98 313.74 284.23 0 264.5 0 588.11 323.61 597.98 313.74"/>
  <rect class="cls-2" x="596.19" y="328.44" width="13.95" height=".72" transform="translate(-55.83 522.81) rotate(-45)"/>
  <rect class="cls-2" x="648.11" y="328.77" width="14.65" height=".04" transform="translate(-40.52 559.77) rotate(-45)"/>
  <polygon class="cls-2" points="650.24 313.24 337 0 316.28 0 639.88 323.6 650.24 313.24"/>
  <rect class="cls-2" x="701.75" y="328.7" width="14.49" height=".19" transform="translate(-24.83 597.64) rotate(-45)"/>
  <polygon class="cls-2" points="703.81 313.35 390.45 0 369.95 0 693.56 323.6 703.81 313.35"/>
  <polygon class="cls-2" points="756.44 313.23 443.21 0 422.44 0 746.05 323.61 756.44 313.23"/>
  <polygon class="cls-2" points="501.61 323.6 501.83 323.38 491.65 313.19 491.42 313.42 481.24 323.6 282.86 521.98 303.23 521.98 491.42 333.79 501.61 323.6"/>
  <polygon class="cls-2" points="555.06 323.59 555.3 323.36 545.11 313.17 544.87 313.4 534.69 323.59 336.3 521.98 356.67 521.98 544.87 333.78 555.06 323.59"/>
  <polygon class="cls-2" points="607.84 323.61 608.4 323.06 598.53 313.19 597.98 313.74 588.11 323.61 389.74 521.98 409.48 521.98 597.98 333.48 607.84 323.61"/>
  <polygon class="cls-2" points="660.6 323.6 660.66 323.54 650.3 313.18 650.24 313.24 639.88 323.6 441.5 521.98 462.22 521.98 650.24 333.96 660.6 323.6"/>
  <polygon class="cls-2" points="714.05 323.6 714.23 323.43 703.98 313.18 703.81 313.35 693.56 323.6 495.18 521.98 515.68 521.98 703.81 333.85 714.05 323.6"/>
  <polygon class="cls-2" points="756.48 313.18 756.44 313.23 746.05 323.61 547.68 521.98 568.45 521.98 766.87 323.57 756.48 313.18"/>
  <polygon class="cls-2" points="923.79 166.8 756.99 0 736.62 0 913.61 176.99 923.79 166.8"/>
  <polygon class="cls-2" points="897.06 193.55 703.51 0 683.14 0 886.88 203.74 897.06 193.55"/>
  <polygon class="cls-2" points="870.36 220.25 650.11 0 630.37 0 860.49 230.12 870.36 220.25"/>
  <polygon class="cls-2" points="844.46 246.14 598.32 0 577.6 0 834.1 256.5 844.46 246.14"/>
  <polygon class="cls-2" points="817.61 272.98 544.63 0 524.13 0 807.36 283.23 817.61 272.98"/>
  <polygon class="cls-2" points="791.37 299.24 492.13 0 471.36 0 780.98 309.62 791.37 299.24"/>
  <polygon class="cls-2" points="308.46 182.44 0 490.9 0 511.27 318.65 192.62 308.46 182.44"/>
  <polygon class="cls-2" points="335.2 209.16 22.38 521.98 42.75 521.98 345.38 219.35 335.2 209.16"/>
  <polygon class="cls-2" points="361.9 235.88 75.8 521.98 95.54 521.98 371.77 245.74 361.9 235.88"/>
  <polygon class="cls-2" points="387.79 261.77 127.58 521.98 148.3 521.98 398.15 272.13 387.79 261.77"/>
  <polygon class="cls-2" points="414.65 288.6 181.27 521.98 201.77 521.98 424.9 298.85 414.65 288.6"/>
  <polygon class="cls-2" points="440.88 314.86 233.76 521.98 254.53 521.98 451.26 325.24 440.88 314.86"/>
  <polygon class="cls-2" points="16.12 160.52 0 144.4 0 164.77 5.94 170.71 16.12 160.52"/>
  <rect class="cls-2" x="14.12" y="175.76" width="14.41" height=".29" transform="translate(-118.14 66.6) rotate(-45)"/>
  <polygon class="cls-2" points="69.61 160.52 0 90.91 0 111.29 59.42 170.71 69.61 160.52"/>
  <rect class="cls-2" x="67.59" y="175.76" width="14.41" height=".26" transform="translate(-102.47 104.4) rotate(-45)"/>
  <rect class="cls-2" x="120.91" y="175.54" width="13.95" height=".72" transform="translate(-86.93 141.95) rotate(-45)"/>
  <polygon class="cls-2" points="122.7 160.85 0 38.15 0 57.89 112.83 170.72 122.7 160.85"/>
  <polygon class="cls-2" points="174.96 160.35 14.61 0 0 0 0 6.11 164.6 170.71 174.96 160.35"/>
  <polygon class="cls-2" points="174.98 181.09 185.34 170.73 185.32 170.71 174.96 181.07 174.98 181.09"/>
  <rect class="cls-2" x="226.49" y="175.81" width="14.49" height=".17" transform="translate(-55.92 216.8) rotate(-45)"/>
  <polygon class="cls-2" points="228.56 160.47 68.09 0 47.59 0 218.31 170.72 228.56 160.47"/>
  <polygon class="cls-2" points="281.18 160.33 120.85 0 100.08 0 270.79 170.72 281.18 160.33"/>
  <polygon class="cls-2" points="26.31 170.71 26.55 170.47 16.36 160.28 16.12 160.52 5.94 170.71 0 176.64 0 197.02 16.12 180.89 26.31 170.71"/>
  <polygon class="cls-2" points="79.79 170.71 80.03 170.47 69.84 160.28 69.61 160.52 59.42 170.71 0 230.12 0 250.5 69.61 180.89 79.79 170.71"/>
  <polygon class="cls-2" points="132.56 170.72 133.12 170.16 123.25 160.29 122.7 160.85 112.83 170.72 0 283.54 0 303.28 122.7 180.58 132.56 170.72"/>
  <polygon class="cls-2" points="185.32 170.71 185.38 170.65 175.02 160.29 174.96 160.35 164.6 170.71 0 335.31 0 356.03 174.96 181.07 185.32 170.71"/>
  <polygon class="cls-2" points="238.81 170.72 238.98 170.54 228.73 160.3 228.56 160.47 218.31 170.72 0 389.02 0 409.52 228.56 180.96 238.81 170.72"/>
  <polygon class="cls-2" points="281.21 160.3 281.18 160.33 270.79 170.72 0 441.51 0 462.28 291.6 170.68 281.21 160.3"/>
  <polygon class="cls-2" points="901.6 521.73 901.85 521.98 922.35 521.98 911.84 511.48 901.6 521.73"/>
  <polygon class="cls-2" points="927.85 495.47 954.36 521.98 975.13 521.98 938.24 485.09 927.85 495.47"/>
</svg>